Coordinates
version=1
nRows=10
nColumns=45
inDegrees=yes

Units are S.I. units (second, meters, Newtons, ...)
Angles are in degrees.

endheader
time	pelvis_tilt	pelvis_list	pelvis_rotation	pelvis_tx	pelvis_ty	pelvis_tz	hip_flexion_r	hip_adduction_r	hip_rotation_r	knee_angle_r	knee_adduction_r	knee_angle_r_beta	ankle_angle_r	subtalar_angle_r	mtp_angle_r	hip_flexion_l	hip_adduction_l	hip_rotation_l	knee_angle_l	knee_adduction_l	knee_angle_l_beta	ankle_angle_l	subtalar_angle_l	mtp_angle_l	lumbar_extension	lumbar_bending	lumbar_rotation	thoracic_extension	thoracic_bending	thoracic_rotation	arm_flex_r	arm_add_r	arm_rot_r	elbow_flex_r	pro_sup_r	wrist_flex_r	wrist_dev_r	arm_flex_l	arm_add_l	arm_rot_l	elbow_flex_l	pro_sup_l	wrist_flex_l	wrist_dev_l
     29.15000000	     -0.98194925	      2.11219949	     -4.02554177	      0.70418831	      0.94478022	      0.47307145	     22.74007562	     -5.92558405	     -1.13137856	     68.38846233	      5.06300000	      1.19360384	      3.24796624	    -12.89723452	      1.43769806	      8.12217835	      3.82515034	     -5.62783939	     23.48892989	      5.06300000	      0.40995916	     17.53353377	    -11.19776910	      2.63700011	     -5.28790470	     -0.32723657	     -0.10230874	      0.00000000	      0.00000000	      0.00000000	      4.76067646	    -12.17135648	      3.05902732	     28.62280675	     89.99911678	      0.00000000	      0.00000000	     -0.89850762	    -12.51347381	     12.70222732	     32.37830860	     89.99945425	      0.00000000	      0.00000000
     29.16064286	     -1.40699688	      2.04481624	     -3.70481653	      0.70277535	      0.94603095	      0.47327448	     24.62593729	     -5.58240944	     -1.42770846	     66.58991188	      5.06300000	      1.16221321	      4.09193506	    -12.21472002	      0.75897195	      7.22026219	      3.75833164	     -5.48619252	     22.69678517	      5.06300000	      0.39613363	     17.50144769	    -10.57264516	      2.46095109	     -4.93001702	     -0.23249349	     -0.66879790	      0.00000000	      0.00000000	      0.00000000	      3.57968973	    -12.06439541	      3.04982753	     28.37732026	     89.99911678	      0.00000000	      0.00000000	     -0.04654523	    -13.03196359	     12.52097370	     33.29044618	     89.99945425	      0.00000000	      0.00000000
     29.17128571	     -1.35231352	      1.94099716	     -3.29629861	      0.70163226	      0.94768740	      0.47298018	     25.69066410	     -5.38222996	     -1.90444737	     64.38551797	      5.06300000	      1.12373928	      4.64363137	    -11.40244412	     -0.60483251	      5.70456716	      3.76249626	     -5.06298952	     21.67614370	      5.06300000	      0.37832008	     17.23908725	    -10.30825865	      1.89686663	     -5.10598338	     -0.07278654	     -1.43273101	      0.00000000	      0.00000000	      0.00000000	      3.12459640	    -11.81395959	      2.69230291	     26.57121220	     89.99911678	      0.00000000	      0.00000000	      0.56530168	    -13.68418987	     12.60459196	     35.10205970	     89.99945425	      0.00000000	      0.00000000
     29.18192857	     -1.77982318	      1.99358870	     -2.95541659	      0.70041198	      0.94825169	      0.47312844	     27.23676012	     -5.25506043	     -2.22146123	     62.10509705	      5.06300000	      1.08393843	      5.33163665	    -10.44914544	     -0.63807163	      4.85109610	      3.78444947	     -5.02196906	     20.92621740	      5.06300000	      0.36523139	     17.23877167	     -9.50777229	      1.66626976	     -4.68893051	     -0.12271026	     -1.99341336	      0.00000000	      0.00000000	      0.00000000	      1.97108170	    -11.69689882	      2.65303052	     26.40539048	     89.99911678	      0.00000000	      0.00000000	      1.46560796	    -14.25838931	     12.37900072	     36.02866841	     89.99945425	      0.00000000	      0.00000000
     29.19257143	     -1.70135341	      1.86590949	     -2.62891276	      0.69964207	      0.94932948	      0.47301377	     27.95710592	     -5.06373033	     -2.70740899	     59.43179586	      5.06300000	      1.03728052	      5.90865288	     -9.29236512	     -0.30090555	      3.29170832	      3.71639064	     -4.68451353	     19.88460159	      5.06300000	      0.34705177	     17.10893351	     -9.15808271	      1.16139006	     -4.80533730	      0.01087042	     -2.64531764	      0.00000000	      0.00000000	      0.00000000	      1.33501072	    -11.61097766	      2.33707349	     25.22523638	     89.99911678	      0.00000000	      0.00000000	      2.10827929	    -14.79842103	     12.34914338	     37.59750235	     89.99945425	      0.00000000	      0.00000000
     29.20321429	     -1.56254453	      1.83847577	     -2.24055657	      0.69875874	      0.95019981	      0.47272024	     28.47906111	     -5.00785739	     -3.18502150	     56.49049980	      5.06300000	      0.98594522	      6.32221060	     -8.28975327	      0.05958535	      1.72862060	      3.71838593	     -4.45035821	     18.92652778	      5.06300000	      0.33033023	     16.88550294	     -8.60037898	      0.60838044	     -5.08435211	      0.09323697	     -3.31053615	      0.00000000	      0.00000000	      0.00000000	      0.72925788	    -11.45844730	      1.96753696	     24.08330638	     89.99911678	      0.00000000	      0.00000000	      2.67387668	    -15.41064674	     12.27760623	     39.21208925	     89.99945425	      0.00000000	      0.00000000
     29.21385714	     -1.97907922	      2.14246173	     -1.87119141	      0.69756144	      0.94969800	      0.47288257	     29.69995470	     -5.20908192	     -3.42891783	     53.58628593	      5.06300000	      0.93525712	      6.45475289	     -7.51438613	      0.20713569	      0.90853962	      3.98686423	     -4.35646018	     18.20209755	      5.06300000	      0.31768653	     16.88286069	     -7.85996414	      0.32746789	     -4.68635595	     -0.25640848	     -3.79629330	      0.00000000	      0.00000000	      0.00000000	     -0.32313990	    -11.32426067	      1.89961359	     23.93061938	     89.99911678	      0.00000000	      0.00000000	      3.57995534	    -16.00930007	     12.03923467	     40.12730333	     89.99945425	      0.00000000	      0.00000000
     29.22450000	     -2.20250603	      2.20217855	     -1.61000999	      0.69696344	      0.94936009	      0.47288930	     30.46066889	     -5.19527879	     -3.79338306	     50.27838751	      5.06300000	      0.87752340	      6.48185384	     -6.61523457	      0.43071739	     -0.27435958	      4.04487406	     -4.17623841	     17.26263263	      5.06300000	      0.30128978	     16.79589285	     -7.38306085	     -0.17916100	     -4.49434133	     -0.33157615	     -4.23140360	      0.00000000	      0.00000000	      0.00000000	     -1.16527119	    -11.36342829	      1.70363793	     23.37600524	     89.99911678	      0.00000000	      0.00000000	      4.24074614	    -16.47137941	     11.95485105	     41.32571187	     89.99945425	      0.00000000	      0.00000000
     29.23514286	     -2.37597656	      2.33269946	     -1.34853583	      0.69607185	      0.94882390	      0.47285731	     31.08584820	     -5.25052840	     -4.10904883	     46.72858384	      5.06300000	      0.81556764	      6.31248063	     -5.88780531	      0.58120695	     -1.44668431	      4.16456302	     -4.03789392	     16.41304958	      5.06300000	      0.28646176	     16.66252083	     -6.87967473	     -0.78322893	     -4.36460167	     -0.43093912	     -4.62567632	      0.00000000	      0.00000000	      0.00000000	     -1.94095338	    -11.29815739	      1.51454993	     22.85816771	     89.99911678	      0.00000000	      0.00000000	      4.99430509	    -17.00912865	     11.85963228	     42.54209996	     89.99945425	      0.00000000	      0.00000000
     29.24578571	     -1.57000442	      2.00573429	     -1.15343089	      0.69498070	      0.94944200	      0.47313787	     30.32573037	     -4.81040155	     -4.59901880	     42.58620294	      5.06300000	      0.74326946	      5.90245884	     -5.34767254	      0.32263195	     -3.70418365	      3.77662730	     -4.01234067	     15.50775536	      5.06300000	      0.27066139	     16.42563877	     -6.39702638	     -2.25335173	     -5.48812521	     -0.08338227	     -5.11866204	      0.00000000	      0.00000000	      0.00000000	     -1.88314598	    -11.16832272	      0.82148580	     21.46463678	     89.99911678	      0.00000000	      0.00000000	      5.65837776	    -17.74715974	     11.90348639	     44.68101691	     89.99945425	      0.00000000	      0.00000000
